<?xml version="1.0" standalone="no"?>
<!DOCTYPE svg PUBLIC "-//W3C//DTD SVG 20010904//EN"
 "http://www.w3.org/TR/2001/REC-SVG-20010904/DTD/svg10.dtd">
<svg version="1.0" xmlns="http://www.w3.org/2000/svg"
 width="400.000000pt" height="200.000000pt" viewBox="0 0 400.000000 200.000000"
 preserveAspectRatio="xMidYMid meet">
<metadata>
Created by potrace 1.16, written by Peter Selinger 2001-2019
</metadata>
<g transform="translate(0.000000,200.000000) scale(0.033333,-0.031847)"
fill="#000000" stroke="none">
<path d="M6210 6195 c-10 -12 -9 -27 8 -79 31 -95 48 -194 35 -207 -19 -19
-51 0 -58 34 -7 34 -25 98 -52 185 -16 51 -17 52 -55 52 -43 0 -50 -15 -14
-32 14 -6 29 -22 35 -37 28 -67 58 -190 54 -214 l-5 -27 76 0 77 0 -6 38 c-9
53 -25 129 -39 189 -12 48 -11 54 5 69 17 15 20 14 43 -12 15 -17 29 -51 36
-84 5 -30 15 -70 21 -88 6 -18 9 -52 7 -75 l-3 -42 147 0 c135 0 148 -2 162
-20 15 -20 15 -20 29 -1 13 18 26 20 110 18 53 -1 107 -6 121 -12 29 -11 40
-51 32 -118 -4 -26 -9 -87 -11 -135 l-5 -88 130 2 130 2 0 29 c0 28 -17 37
-35 19 -6 -5 -47 -11 -93 -12 -103 -4 -106 -1 -95 101 4 41 8 105 8 142 -1
100 -5 103 -173 104 -76 1 -147 4 -157 7 -11 4 -69 3 -128 -1 -81 -6 -111 -4
-119 5 -5 7 -21 67 -34 135 -26 127 -37 148 -80 148 -13 0 -26 5 -29 10 -10
15 -61 12 -75 -5z"/>
<path d="M5974 6155 c-4 -9 3 -35 14 -58 12 -23 28 -68 36 -100 8 -31 18 -61
21 -66 10 -17 -16 -24 -102 -25 -68 -1 -87 -4 -97 -18 -9 -12 -14 -62 -15
-155 0 -76 -4 -176 -7 -223 -3 -47 -7 -110 -9 -140 -2 -30 -4 -70 -4 -87 l-1
-33 -52 1 c-54 0 -132 11 -178 24 -63 18 -65 16 -68 -64 -2 -52 1 -80 12 -96
14 -22 20 -23 108 -19 51 3 104 6 118 9 43 6 55 -9 56 -69 1 -84 7 -88 140
-84 66 2 117 -1 122 -7 7 -6 -5 -41 -33 -98 -23 -48 -45 -97 -48 -108 -5 -17
-11 -20 -29 -15 -13 4 -36 11 -53 16 -16 4 -55 18 -85 30 -30 12 -69 25 -86
29 -16 5 -41 15 -55 24 -50 33 -325 32 -539 -2 -36 -5 -135 -19 -220 -31 -85
-11 -177 -25 -205 -30 -118 -22 -265 -54 -330 -72 -38 -11 -90 -24 -115 -30
-25 -5 -67 -16 -95 -24 -27 -7 -77 -17 -110 -20 -46 -5 -78 -17 -138 -51 -89
-52 -106 -73 -83 -107 10 -17 31 -26 78 -35 139 -27 290 -62 309 -71 9 -5 34
-11 55 -15 42 -7 157 -39 214 -60 19 -7 64 -20 100 -29 133 -33 166 -43 190
-56 13 -7 38 -16 55 -21 16 -4 75 -24 130 -44 55 -20 134 -49 175 -65 83 -30
119 -45 230 -96 128 -58 123 -53 141 -141 9 -43 24 -121 33 -173 10 -52 24
-126 32 -164 8 -38 19 -99 24 -135 9 -73 48 -268 81 -407 11 -50 19 -101 17
-115 l-3 -24 -214 4 -214 3 -30 35 c-16 19 -45 54 -64 79 -19 24 -40 44 -47
44 -8 0 -19 7 -26 15 -13 16 -76 20 -98 6 -9 -5 3 -10 35 -15 41 -5 56 -13 94
-54 82 -86 134 -162 123 -180 -6 -9 -51 -37 -100 -63 -87 -47 -117 -55 -309
-90 -33 -6 -80 -14 -105 -19 -77 -15 -332 -29 -630 -36 -450 -10 -447 -10
-436 56 11 68 70 192 110 232 44 43 42 55 -6 42 -25 -7 -39 -22 -64 -69 -18
-33 -38 -76 -45 -95 -17 -52 -35 -67 -87 -75 -26 -4 -72 -13 -102 -21 -30 -8
-68 -12 -84 -8 -19 4 -42 -1 -70 -14 -22 -12 -72 -31 -111 -43 -38 -12 -79
-30 -90 -40 -12 -10 -36 -24 -54 -30 -30 -11 -36 -10 -48 6 -7 11 -13 31 -13
47 0 24 9 32 69 62 98 49 151 84 151 100 0 26 -34 56 -65 57 -24 0 -129 -14
-239 -33 -13 -2 -29 11 -52 42 -18 25 -33 49 -33 54 -1 14 -128 193 -199 279
-92 112 -229 245 -356 346 -18 14 -40 34 -50 44 -10 9 -31 24 -47 33 -17 8
-38 23 -48 32 -37 35 -60 49 -230 147 -188 108 -329 173 -401 185 -25 4 -58
12 -73 19 -42 17 -57 14 -57 -12 0 -15 14 -33 39 -53 42 -32 166 -191 177
-227 4 -12 15 -34 25 -48 31 -44 58 -131 65 -209 9 -105 6 -151 -16 -217 -23
-69 -25 -89 -6 -100 12 -7 26 -28 73 -113 8 -14 23 -38 33 -55 11 -16 22 -37
26 -45 3 -8 17 -38 31 -66 38 -73 30 -84 -57 -84 -59 0 -79 -5 -116 -26 -36
-21 -44 -30 -39 -48 9 -31 81 -92 150 -125 101 -50 127 -79 141 -153 20 -105
34 -147 93 -283 54 -124 60 -134 140 -213 46 -45 88 -82 93 -82 6 0 48 -30 95
-66 47 -36 97 -70 111 -75 14 -6 77 -40 140 -76 63 -36 141 -78 173 -95 l59
-29 -5 -97 c-7 -104 -22 -333 -32 -475 -3 -51 -11 -91 -19 -98 -9 -7 -27 -4
-66 14 -179 81 -321 138 -341 135 -16 -2 -27 -17 -42 -55 -21 -55 -34 -62 -77
-42 -36 16 -96 -13 -114 -56 -32 -78 -9 -211 49 -278 29 -34 39 -39 79 -39 57
-1 100 24 128 75 28 48 24 106 -12 176 -21 40 -24 55 -18 95 11 75 16 75 132
23 57 -25 117 -51 133 -57 17 -6 39 -15 50 -20 46 -21 145 -60 154 -60 12 0
28 54 30 100 1 19 5 58 11 85 5 28 12 75 15 105 17 151 59 396 69 402 6 4 17
1 26 -6 21 -18 147 -76 165 -76 9 0 43 -12 78 -26 73 -30 235 -84 253 -84 7 0
25 -7 41 -15 45 -23 333 -100 613 -164 68 -16 256 -63 305 -77 92 -25 195 -43
355 -60 14 -1 63 -7 110 -13 47 -6 146 -15 220 -19 111 -6 135 -10 133 -22 -1
-8 -24 -89 -52 -180 -28 -91 -58 -188 -66 -216 l-15 -51 -69 -7 c-144 -13
-230 -82 -286 -229 -14 -37 -25 -70 -25 -72 0 -3 395 -4 878 -3 l877 3 -3 72
c-6 177 -145 322 -317 331 -38 3 -75 8 -81 13 -7 6 -15 26 -19 47 -7 37 -38
140 -53 177 -24 55 -31 89 -22 100 6 7 56 15 123 19 289 18 661 93 867 173 47
18 93 33 102 33 10 0 45 13 78 29 34 17 78 35 98 42 20 6 42 15 47 19 13 9
157 87 215 115 52 26 166 100 195 128 11 10 48 39 82 64 34 25 64 51 67 59 9
23 27 16 78 -32 27 -25 54 -44 61 -41 16 5 11 153 -7 222 -8 28 -19 78 -25
112 -21 112 -60 206 -146 348 -68 113 -103 159 -183 240 -132 135 -228 211
-349 278 -128 71 -308 132 -423 144 -71 8 -72 11 -28 126 22 56 49 127 59 157
11 30 46 123 79 205 89 227 144 367 196 505 26 69 62 157 80 196 19 39 34 76
34 83 0 36 32 69 92 96 35 15 91 40 124 56 34 16 66 29 70 29 4 0 40 16 79 35
96 47 246 116 325 150 36 15 90 39 120 53 30 13 64 28 75 33 11 4 41 17 66 28
26 11 71 29 101 41 56 21 83 51 76 86 -2 14 -21 23 -78 36 -191 46 -331 68
-532 84 -200 15 -224 15 -305 0 -48 -9 -124 -15 -168 -14 -89 1 -250 -24 -483
-74 -36 -8 -56 -8 -63 -1 -6 6 -15 68 -20 139 -6 71 -14 141 -19 156 -5 19 -4
30 3 35 7 4 57 8 112 8 l99 0 7 40 c4 22 8 126 10 230 1 105 6 198 11 208 6
12 21 17 53 17 25 0 45 4 45 9 0 14 -28 20 -90 18 -44 -2 -54 -5 -51 -17 5
-17 3 -208 -4 -345 -3 -62 -10 -94 -20 -104 -18 -19 -188 -25 -247 -10 -44 11
-47 24 -36 144 4 44 10 112 12 150 3 39 10 113 16 165 29 274 35 379 24 367
-8 -8 -17 -91 -45 -412 -31 -366 -33 -383 -45 -395 -8 -8 -80 -12 -224 -13
l-211 -2 -28 -80 c-15 -44 -34 -93 -43 -110 -8 -16 -18 -43 -22 -60 -15 -62
-66 -105 -66 -55 0 17 75 186 121 273 18 33 1 38 -139 35 l-137 -3 -15 42
c-13 39 -13 46 4 74 l18 31 -147 -3 c-135 -3 -149 -1 -161 16 -18 24 -18 59 0
74 11 10 25 9 61 -3 29 -10 81 -16 146 -16 93 0 100 1 94 18 -11 24 -11 31 -2
257 12 319 16 368 29 377 18 11 147 4 182 -11 24 -10 32 -9 44 3 13 13 12 18
-7 42 -11 14 -21 37 -21 50 0 13 -10 49 -22 81 -12 32 -24 76 -27 98 -5 32
-11 41 -29 43 -13 2 -25 -3 -28 -13z m536 -1201 c0 -11 6 -14 23 -8 32 11 99
7 107 -6 13 -21 29 -341 18 -359 -11 -19 -54 -41 -78 -41 -24 0 -69 -51 -76
-88 -4 -18 -10 -32 -15 -32 -22 0 -98 57 -99 74 0 10 13 58 30 107 16 50 32
109 36 132 5 38 4 40 -9 24 -11 -14 -70 -168 -93 -244 -6 -21 -44 -16 -44 5 0
10 24 79 53 153 30 74 64 163 76 198 12 36 27 73 32 83 12 22 39 24 39 2z
m-93 -21 c-5 -28 -40 -127 -100 -282 -17 -46 -38 -86 -46 -89 -15 -6 -172 70
-191 93 -11 13 -10 18 4 33 9 10 16 22 16 26 0 4 18 51 40 104 23 53 45 106
49 117 8 18 19 20 121 23 l112 2 -5 -27z m321 -156 c7 -89 15 -191 16 -227 8
-139 26 -287 41 -329 8 -24 13 -46 11 -49 -12 -11 -54 10 -64 32 -14 30 -59
714 -49 740 17 45 32 -10 45 -167z m402 -850 c0 -7 -11 -28 -25 -47 -14 -19
-25 -40 -25 -46 0 -15 -41 -118 -123 -309 -30 -71 -60 -148 -66 -170 -6 -22
-19 -54 -29 -70 -10 -17 -27 -55 -37 -85 -10 -30 -21 -59 -24 -65 -4 -5 -20
-44 -36 -85 -16 -41 -37 -88 -47 -105 -10 -16 -18 -35 -18 -42 0 -6 -15 -43
-32 -82 -32 -69 -65 -100 -85 -80 -6 6 -51 13 -102 16 -50 3 -95 11 -100 17
-5 6 -16 54 -24 106 -15 90 -14 97 3 127 22 37 105 226 148 335 17 42 40 98
52 125 62 138 113 251 124 273 8 14 21 49 31 78 26 81 28 82 173 82 106 1 133
4 162 20 41 22 80 26 80 7z m-539 -33 c6 -4 6 -10 1 -17 -8 -10 -76 -172 -130
-312 -9 -22 -21 -47 -28 -55 -6 -8 -23 -46 -37 -85 -43 -119 -74 -189 -86
-193 -11 -4 -17 18 -25 88 -2 25 -14 99 -26 165 -12 66 -26 152 -30 190 -5 39
-15 98 -21 132 -9 45 -9 65 -1 75 8 10 57 14 192 16 100 1 186 -1 191 -4z
m-563 -21 c5 -10 14 -52 21 -93 7 -41 24 -129 37 -195 14 -66 38 -194 54 -285
16 -91 36 -198 46 -238 18 -78 16 -89 -27 -210 -22 -62 -23 -64 -53 -58 -17 3
-77 9 -133 12 -120 8 -129 14 -135 94 -3 30 -24 163 -47 295 -23 132 -44 254
-46 270 -9 67 -16 114 -30 195 -30 175 -33 194 -28 207 5 12 45 15 255 21 65
2 79 -1 86 -15z m-409 -57 c-1 -23 4 -52 11 -66 7 -13 13 -50 14 -81 1 -34 5
-55 11 -53 7 3 10 -20 9 -62 -1 -49 3 -67 13 -71 11 -4 14 -21 12 -62 -1 -31
3 -69 9 -84 7 -16 12 -38 12 -50 0 -12 6 -45 14 -74 8 -28 12 -54 9 -56 -2 -3
2 -37 10 -76 9 -39 13 -79 10 -90 -3 -10 2 -32 11 -49 8 -16 13 -32 9 -35 -3
-4 1 -17 9 -29 9 -13 17 -60 21 -109 3 -48 15 -126 27 -174 12 -48 19 -90 16
-92 -3 -3 -8 8 -11 23 -4 16 -13 41 -21 56 -8 14 -14 39 -14 55 0 15 -5 45
-11 67 -15 55 -19 73 -26 141 -3 33 -10 68 -15 79 -6 10 -12 37 -14 60 -3 22
-7 48 -10 56 -7 18 -26 134 -28 172 0 14 -4 24 -8 21 -5 -2 -8 20 -8 49 0 30
-4 58 -9 64 -5 5 -17 52 -26 104 -9 52 -23 127 -31 165 -21 105 -36 225 -30
241 3 7 12 11 21 8 11 -4 15 -18 14 -48z m183 -3084 c4 -4 35 -79 69 -167 34
-88 68 -169 75 -180 20 -28 18 -40 -16 -79 -36 -41 -60 -93 -75 -166 l-12 -55
-114 -12 c-138 -14 -288 -37 -310 -47 -13 -6 -22 4 -42 46 -27 57 -91 138
-111 138 -11 0 -33 21 -49 47 -4 6 -1 24 7 40 38 78 78 166 111 243 20 46 39
89 43 95 5 5 14 28 21 50 8 22 17 45 21 50 9 11 370 8 382 -3z"/>
<path d="M6766 5692 c-2 -4 -10 -93 -16 -197 -7 -105 -16 -200 -22 -212 -15
-31 -3 -56 22 -48 12 4 48 6 81 6 38 0 61 4 64 12 2 7 5 56 7 109 3 95 3 97
-23 112 -14 9 -29 13 -33 9 -12 -12 -6 -43 9 -43 23 0 34 -33 31 -95 -3 -71
-21 -87 -86 -83 l-45 3 1 80 c1 82 18 264 30 323 6 29 -7 45 -20 24z"/>
<path d="M6436 5407 c-9 -12 -22 -53 -31 -90 -9 -38 -21 -77 -28 -87 -6 -11
-8 -22 -4 -26 15 -15 36 20 50 84 30 129 42 141 98 101 33 -23 35 -33 13 -74
-9 -16 -27 -59 -40 -95 -14 -35 -31 -72 -40 -81 -12 -14 -12 -18 -1 -28 20
-16 29 -2 61 88 15 40 35 86 46 101 35 50 25 83 -36 110 -55 26 -70 25 -88 -3z"/>
<path d="M4031 4221 c-90 -42 -158 -99 -205 -169 -29 -43 -31 -54 -34 -147 -2
-69 2 -123 14 -175 11 -52 19 -147 24 -310 5 -163 12 -253 23 -295 18 -67 38
-232 30 -251 -8 -22 33 -25 173 -9 76 9 182 20 235 25 53 5 114 13 135 19 21
5 84 13 139 16 111 8 136 18 107 44 -26 22 -70 101 -74 131 -2 20 1 25 17 23
11 -1 42 5 68 14 42 13 52 22 68 57 10 22 19 60 19 83 0 29 7 50 25 71 14 17
25 38 25 47 0 9 -11 30 -25 47 -14 16 -25 37 -25 46 0 25 65 64 95 56 35 -9
88 44 83 83 -4 39 -33 42 -46 4 -13 -36 -47 -58 -67 -41 -7 6 -19 25 -26 42
-12 29 -11 32 15 53 43 35 32 59 -58 129 -62 48 -82 69 -89 96 -5 19 -14 42
-21 50 -7 8 -24 36 -39 61 -45 79 -144 131 -252 131 -47 1 -67 6 -91 23 -16
13 -60 37 -96 53 l-66 30 -81 -37z m450 -284 c10 -23 19 -50 19 -59 0 -10 7
-18 15 -18 17 0 48 -29 58 -52 3 -9 -1 -24 -8 -35 -13 -17 -16 -16 -54 22 -23
21 -41 33 -41 26 0 -7 -9 -24 -20 -38 -23 -30 -26 -85 -6 -102 9 -8 16 -8 20
-2 4 5 2 12 -4 16 -15 9 -12 61 5 75 25 21 35 1 33 -66 -2 -53 -7 -71 -26 -91
-20 -22 -28 -24 -68 -18 -57 8 -59 -10 -2 -26 33 -8 47 -8 62 1 16 10 21 9 28
-4 5 -9 17 -16 27 -16 10 0 26 -9 37 -21 17 -19 18 -21 1 -30 -21 -12 -22 -42
-1 -60 10 -8 14 -23 12 -41 -5 -28 9 -37 28 -18 7 7 17 0 32 -20 13 -16 32
-30 43 -30 41 0 59 -18 59 -61 0 -70 -41 -119 -100 -119 -10 0 -22 -4 -25 -10
-4 -6 -16 -5 -33 4 -15 7 -43 17 -62 21 -58 12 -88 42 -130 128 -22 45 -53
107 -69 137 -16 30 -32 78 -35 107 l-6 52 34 12 c33 12 35 15 38 68 4 55 -20
149 -44 179 -14 17 -91 15 -135 -3 -45 -19 -43 -19 -43 10 0 16 6 25 15 25 9
0 26 7 40 16 13 8 48 18 78 21 49 5 57 3 69 -16 20 -33 29 -25 13 13 -19 44
-7 88 26 97 40 10 98 -26 120 -74z m122 -235 c7 -5 39 -14 71 -21 94 -18 125
-62 93 -133 l-12 -27 -60 31 c-44 23 -74 32 -114 32 -62 1 -85 21 -63 56 6 11
12 32 12 47 0 18 10 35 28 49 l27 22 3 -23 c2 -13 9 -28 15 -33z"/>
<path d="M8895 2294 c-40 -21 -60 -43 -76 -88 -16 -44 -36 -54 -99 -50 -107 7
-295 12 -307 7 -7 -3 -10 -10 -6 -16 3 -5 -2 -16 -12 -23 -10 -8 -15 -17 -10
-21 4 -5 10 -3 12 3 2 7 20 10 46 7 24 -3 59 -1 79 5 25 7 39 7 47 -1 7 -7 22
-7 49 1 53 16 102 15 102 -1 0 -24 45 -40 87 -32 21 4 40 6 43 5 8 -2 -1 -44
-11 -50 -4 -3 -14 -23 -21 -45 -11 -33 -17 -39 -36 -37 -23 3 -25 -1 -37 -52
-5 -24 -3 -27 11 -22 20 8 47 -12 37 -27 -10 -16 -16 -216 -7 -235 8 -17 11 5
32 216 l7 77 56 0 c50 0 61 4 104 39 45 37 46 40 29 53 -63 45 -69 70 -29 116
30 33 45 34 69 1 15 -21 17 -37 13 -75 l-6 -49 27 7 c35 8 102 63 102 84 0 9
-13 27 -30 40 -22 18 -30 32 -30 57 0 45 -44 86 -114 106 -67 20 -83 20 -121
0z"/>
<path d="M8077 2226 c-40 -18 -47 -32 -47 -101 l0 -61 57 -33 c43 -24 67 -32
97 -29 35 2 41 0 40 -17 -1 -11 -4 -27 -8 -36 -11 -25 96 -83 140 -76 31 5 34
3 53 -36 14 -30 19 -53 15 -78 -4 -23 -1 -47 10 -67 14 -27 14 -34 1 -65 -14
-33 -13 -35 15 -61 17 -14 30 -30 30 -35 0 -5 10 -13 23 -17 12 -4 29 -14 37
-24 26 -28 51 -33 66 -11 8 11 24 21 37 23 19 3 22 8 20 48 -6 113 -27 147
-38 63 -3 -27 -11 -59 -16 -73 l-11 -25 -13 25 c-8 14 -11 36 -9 50 l5 25 -26
-29 c-14 -15 -28 -27 -30 -25 -14 16 -2 89 15 89 6 0 10 8 10 18 -1 13 -8 9
-29 -16 -43 -51 -57 -13 -21 58 26 51 26 53 -11 45 l-30 -7 20 40 c11 23 25
43 31 47 15 10 12 46 -6 59 -14 11 -14 16 6 49 22 37 24 88 3 94 -6 2 -21 -5
-32 -16 -12 -12 -28 -21 -36 -21 -31 0 -101 35 -133 66 -41 40 -37 67 14 91
38 19 44 33 14 33 -11 0 -55 9 -98 19 -114 29 -134 31 -165 17z"/>
</g>
</svg>
